<svg xmlns="http://www.w3.org/2000/svg" version="1.0" preserveAspectRatio="xMidYMid meet" viewBox="1.35 752.02 1077.31 318.98">
<metadata>
Created by potrace 1.16, written by Peter Selinger 2001-2019
</metadata>
<g id="batmark" transform="translate(0.000000,1080.000000) scale(0.100000,-0.100000)" fill="#7FAFC2" stroke="none" opacity="0.02">

<animate attributeName="opacity" values="0.025;0.16;0.025" dur="5.5s" repeatCount="indefinite"/>

    <animateTransform attributeName="transform" type="translate" additive="sum" values="18 8;0 0;18 8" dur="5.5s" repeatCount="indefinite"/>
<path d="M2925 3264 c-1005 -297 -1835 -604 -2425 -899 -160 -79 -411 -220 -438 -245 -13 -12 -22 -44 -31 -106 -7 -49 -15 -97 -17 -106 -4 -14 13 -9 79 22 110 52 303 116 392 131 67 11 75 10 205 -26 462 -127 1154 -341 1229 -379 18 -10 43 -41 65 -80 78 -139 207 -405 229 -471 22 -65 26 -70 58 -77 19 -4 250 -21 514 -38 264 -17 602 -40 750 -51 l270 -20 100 -66 c409 -271 943 -639 1041 -719 l54 -44 400 0 400 0 54 44 c99 80 543 387 1056 729 l85 57 345 24 c190 14 527 37 750 51 223 14 420 29 439 33 32 6 36 12 57 72 12 36 40 103 61 150 50 106 191 371 207 387 25 26 376 144 811 271 152 45 316 92 445 127 131 37 137 38 205 26 89 -15 274 -77 388 -129 70 -33 87 -38 83 -24 -2 9 -10 56 -17 104 -6 48 -15 91 -18 97 -11 17 -243 151 -413 237 -479 242 -1055 470 -1818 719 -229 75 -649 202 -695 211 -38 7 -32 37 -70 -311 -38 -339 -28 -319 -260 -549 -170 -168 -295 -285 -550 -513 -79 -71 -82 -72 -173 -92 -88 -19 -101 -26 -299 -152 -114 -72 -281 -183 -372 -247 -92 -63 -172 -115 -180 -116 -11 -1 -23 41 -47 159 -32 159 -33 161 -146 392 -62 127 -115 232 -118 232 -3 1 -15 -106 -28 -237 -13 -130 -26 -254 -29 -274 l-5 -37 -72 -12 c-56 -9 -87 -9 -146 1 -41 6 -76 13 -78 15 -1 1 -15 124 -30 274 -15 149 -29 271 -32 270 -3 0 -56 -105 -118 -232 -111 -229 -113 -234 -144 -387 -17 -85 -35 -159 -39 -164 -7 -8 -47 17 -259 164 -69 48 -211 142 -317 209 -182 116 -196 122 -285 142 -70 15 -100 27 -123 48 -16 15 -97 87 -180 161 -82 73 -254 235 -381 360 -229 226 -230 228 -252 296 -15 46 -33 158 -52 331 -17 144 -30 265 -30 268 0 9 -32 4 -85 -11z"/>
</g>
</svg>