<svg xmlns="http://www.w3.org/2000/svg" version="1.0" preserveAspectRatio="xMidYMid meet" viewBox="1.35 380.02 1077.31 318.98">
<metadata>
Created by potrace 1.16, written by Peter Selinger 2001-2019
</metadata>
<g transform="translate(0.000000,1080.000000) scale(0.100000,-0.100000)" fill="#000000" stroke="none">
<path d="M2965 6995 c-5 -2 -111 -34 -235 -70 -697 -207 -1462 -484 -1970 -715 -267 -121 -690 -348 -710 -381 -4 -5 -13 -49 -19 -97 -7 -48 -15 -95 -17 -104 -4 -14 13 -9 83 24 115 53 300 114 388 129 68 11 75 10 205 -26 447 -122 1154 -341 1230 -380 20 -10 44 -43 80 -108 89 -162 190 -373 214 -443 21 -64 25 -70 57 -76 19 -4 250 -21 514 -38 264 -17 602 -40 750 -51 l270 -19 185 -124 c519 -347 854 -579 955 -661 l55 -45 400 0 400 0 54 44 c99 80 540 385 1056 729 l85 57 355 25 c195 14 545 38 778 54 233 15 427 32 431 37 5 5 16 33 26 63 32 97 233 501 269 538 33 35 563 204 1186 379 l205 57 70 -12 c89 -15 275 -77 388 -129 70 -33 87 -38 83 -24 -2 9 -10 56 -17 104 -6 48 -15 91 -18 97 -12 18 -246 152 -421 240 -483 244 -1046 466 -1820 719 -219 72 -639 199 -685 208 -38 7 -32 37 -70 -311 -38 -340 -27 -318 -265 -553 -107 -107 -278 -268 -380 -359 -102 -92 -198 -179 -215 -194 -23 -21 -52 -33 -123 -48 -89 -20 -101 -25 -300 -153 -114 -72 -281 -183 -372 -246 -91 -63 -171 -115 -179 -116 -11 -1 -23 41 -47 159 -32 159 -33 161 -146 392 -62 127 -115 232 -118 232 -3 1 -15 -106 -28 -237 -13 -130 -26 -253 -29 -273 l-5 -37 -74 -12 c-60 -10 -88 -10 -148 0 l-74 12 -5 37 c-3 20 -16 143 -29 273 -13 131 -25 238 -28 237 -3 0 -56 -105 -118 -232 -111 -229 -113 -234 -144 -387 -17 -85 -35 -159 -39 -164 -7 -8 -47 17 -259 164 -69 48 -211 142 -317 209 -182 116 -196 122 -285 142 -71 15 -100 27 -123 48 -16 15 -97 88 -180 161 -82 73 -254 235 -380 360 -281 276 -261 236 -305 622 -16 147 -30 270 -30 273 0 5 -29 6 -45 0z"/>
</g>
</svg>